{
	"textures":[{
		"sampler":0,
		"source":0
	},
	{
		"sampler":1,
		"source":1
	},
	{
		"sampler":2,
		"source":2
	}],
	"asset":{
		"version":"2.0",
		"generator":"Created using the official Cinema 4D glTF Exporter 1.000x284978"
	},
	"scenes":[{
		"nodes":[0]
	}],
	"nodes":[{
		"name":"Orizzontale",
		"translation":[-327.6426696777344,
		-10.445401191711426,
		0.0],
		"rotation":[0.0,
		0.0,
		0.0,
		-1.0],
		"scale":[1.0,
		1.0,
		1.0],
		"children":[1,
		2,
		3]
	},
	{
		"name":"Piano.3",
		"translation":[0.0,
		-10.745987892150879,
		0.0],
		"rotation":[0.0,
		0.0,
		0.0,
		-1.0],
		"scale":[1.0,
		1.0,
		1.0],
		"mesh":0
	},
	{
		"name":"Piano.2",
		"translation":[0.0,
		0.30058708786964419,
		0.0],
		"rotation":[0.0,
		0.0,
		0.0,
		-1.0],
		"scale":[1.0,
		1.0,
		1.0],
		"mesh":1
	},
	{
		"name":"Piano.1",
		"translation":[0.0,
		10.445401191711426,
		0.0],
		"rotation":[0.0,
		0.0,
		0.0,
		-1.0],
		"scale":[1.0,
		1.0,
		1.0],
		"mesh":2
	}],
	"accessors":[{
		"bufferView":0,
		"type":"SCALAR",
		"byteOffset":0,
		"componentType":5123,
		"count":31200,
		"min":[0],
		"max":[5201]
	},
	{
		"bufferView":1,
		"type":"VEC3",
		"byteOffset":0,
		"componentType":5126,
		"count":5202,
		"min":[-22.687898635864259,
		-7.89999532699585,
		-250.22735595703126],
		"max":[677.6426391601563,
		9.901946067810059,
		250.2276153564453]
	},
	{
		"bufferView":1,
		"type":"VEC2",
		"byteOffset":12,
		"componentType":5126,
		"count":5202,
		"min":[0.0006512461695820093,
		0.0007500014035031199],
		"max":[0.9980506896972656,
		0.9980506896972656]
	},
	{
		"bufferView":2,
		"type":"SCALAR",
		"byteOffset":0,
		"componentType":5123,
		"count":31200,
		"min":[0],
		"max":[5201]
	},
	{
		"bufferView":3,
		"type":"VEC3",
		"byteOffset":0,
		"componentType":5126,
		"count":5202,
		"min":[-22.687898635864259,
		-7.89999532699585,
		-250.22735595703126],
		"max":[677.6426391601563,
		9.901946067810059,
		250.2276153564453]
	},
	{
		"bufferView":3,
		"type":"VEC2",
		"byteOffset":12,
		"componentType":5126,
		"count":5202,
		"min":[0.0006512461695820093,
		0.0007500014035031199],
		"max":[0.9980506896972656,
		0.9980506896972656]
	},
	{
		"bufferView":4,
		"type":"SCALAR",
		"byteOffset":0,
		"componentType":5126,
		"count":4,
		"min":[0.0],
		"max":[20.0]
	},
	{
		"bufferView":4,
		"type":"VEC3",
		"byteOffset":16,
		"componentType":5126,
		"count":4,
		"min":[0.0,
		0.30058708786964419,
		0.0],
		"max":[1850.458740234375,
		0.30058708786964419,
		0.0]
	},
	{
		"bufferView":5,
		"type":"SCALAR",
		"byteOffset":0,
		"componentType":5126,
		"count":3,
		"min":[0.0],
		"max":[20.0]
	},
	{
		"bufferView":5,
		"type":"VEC4",
		"byteOffset":12,
		"componentType":5126,
		"count":3,
		"min":[0.0,
		0.0,
		0.0,
		-1.0],
		"max":[0.0,
		0.0,
		0.0,
		-1.0]
	},
	{
		"bufferView":6,
		"type":"SCALAR",
		"byteOffset":0,
		"componentType":5126,
		"count":3,
		"min":[0.0],
		"max":[20.0]
	},
	{
		"bufferView":6,
		"type":"VEC3",
		"byteOffset":12,
		"componentType":5126,
		"count":3,
		"min":[1.0,
		1.0,
		1.0],
		"max":[1.0,
		1.0,
		1.0]
	},
	{
		"bufferView":7,
		"type":"SCALAR",
		"byteOffset":0,
		"componentType":5123,
		"count":31200,
		"min":[0],
		"max":[5201]
	},
	{
		"bufferView":8,
		"type":"VEC3",
		"byteOffset":0,
		"componentType":5126,
		"count":5202,
		"min":[-22.687898635864259,
		-7.89999532699585,
		-250.22735595703126],
		"max":[677.6426391601563,
		9.901946067810059,
		250.2276153564453]
	},
	{
		"bufferView":8,
		"type":"VEC2",
		"byteOffset":12,
		"componentType":5126,
		"count":5202,
		"min":[0.0006512461695820093,
		0.0007500014035031199],
		"max":[0.9980506896972656,
		0.9980506896972656]
	},
	{
		"bufferView":9,
		"type":"SCALAR",
		"byteOffset":0,
		"componentType":5126,
		"count":4,
		"min":[0.0],
		"max":[20.0]
	},
	{
		"bufferView":9,
		"type":"VEC3",
		"byteOffset":16,
		"componentType":5126,
		"count":4,
		"min":[0.0,
		10.445401191711426,
		0.0],
		"max":[1932.487548828125,
		10.445401191711426,
		0.0]
	},
	{
		"bufferView":10,
		"type":"SCALAR",
		"byteOffset":0,
		"componentType":5126,
		"count":3,
		"min":[0.0],
		"max":[20.0]
	},
	{
		"bufferView":10,
		"type":"VEC4",
		"byteOffset":12,
		"componentType":5126,
		"count":3,
		"min":[0.0,
		0.0,
		0.0,
		-1.0],
		"max":[0.0,
		0.0,
		0.0,
		-1.0]
	},
	{
		"bufferView":11,
		"type":"SCALAR",
		"byteOffset":0,
		"componentType":5126,
		"count":3,
		"min":[0.0],
		"max":[20.0]
	},
	{
		"bufferView":11,
		"type":"VEC3",
		"byteOffset":12,
		"componentType":5126,
		"count":3,
		"min":[1.0,
		1.0,
		1.0],
		"max":[1.0,
		1.0,
		1.0]
	}],
	"meshes":[{
		"name":"Piano.3",
		"primitives":[{
			"indices":0,
			"attributes":{
				"POSITION":1,
				"TEXCOORD_0":2
			},
			"material":0
		}]
	},
	{
		"name":"Piano.2",
		"primitives":[{
			"indices":3,
			"attributes":{
				"POSITION":4,
				"TEXCOORD_0":5
			},
			"material":1
		}]
	},
	{
		"name":"Piano.1",
		"primitives":[{
			"indices":12,
			"attributes":{
				"POSITION":13,
				"TEXCOORD_0":14
			},
			"material":2
		}]
	}],
	"bufferViews":[{
		"buffer":0,
		"byteOffset":0,
		"byteLength":62400,
		"target":34963
	},
	{
		"buffer":0,
		"byteOffset":62400,
		"byteLength":104040,
		"target":34962,
		"byteStride":20
	},
	{
		"buffer":1,
		"byteOffset":0,
		"byteLength":62400,
		"target":34963
	},
	{
		"buffer":1,
		"byteOffset":62400,
		"byteLength":104040,
		"target":34962,
		"byteStride":20
	},
	{
		"buffer":2,
		"byteOffset":0,
		"byteLength":64
	},
	{
		"buffer":2,
		"byteOffset":64,
		"byteLength":60
	},
	{
		"buffer":2,
		"byteOffset":124,
		"byteLength":48
	},
	{
		"buffer":3,
		"byteOffset":0,
		"byteLength":62400,
		"target":34963
	},
	{
		"buffer":3,
		"byteOffset":62400,
		"byteLength":104040,
		"target":34962,
		"byteStride":20
	},
	{
		"buffer":4,
		"byteOffset":0,
		"byteLength":64
	},
	{
		"buffer":4,
		"byteOffset":64,
		"byteLength":60
	},
	{
		"buffer":4,
		"byteOffset":124,
		"byteLength":48
	}],
	"buffers":[{
		"uri":"data:application/octet-stream;base64,",
		"byteLength":166440
	},
	{
		"uri":"data:application/octet-stream;base64,",
		"byteLength":166440
	},
	{
		"uri":"data:application/octet-stream;base64,",
		"byteLength":172
	},
	{
		"uri":"data:application/octet-stream;base64,",
		"byteLength":166440
	},
	{
		"uri":"data:application/octet-stream;base64,",
		"byteLength":172
	}],
	"images":[{
		"uri":"data:image/jpeg;base64,"
	},
	{
		"uri":"data:image/jpeg;base64,"
	},
	{
		"uri":"data:image/jpeg;base64,"
	}],
	"samplers":[{
		"magFilter":9729,
		"minFilter":9729,
		"wrapS":10497,
		"wrapT":10497
	},
	{
		"magFilter":9729,
		"minFilter":9729,
		"wrapS":10497,
		"wrapT":10497
	},
	{
		"magFilter":9729,
		"minFilter":9729,
		"wrapS":10497,
		"wrapT":10497
	}],
	"materials":[{
		"pbrMetallicRoughness":{
			"baseColorTexture":{
				"index":0
			},
			"baseColorFactor":[0.8,
			0.8,
			0.8,
			1.0],
			"metallicFactor":0.0,
			"roughnessFactor":0.5
		},
		"emissiveFactor":[0.0,
		0.0,
		0.0],
		"alphaMode":"OPAQUE",
		"doubleSided":false,
		"name":"M3"
	},
	{
		"pbrMetallicRoughness":{
			"baseColorTexture":{
				"index":1
			},
			"baseColorFactor":[0.8,
			0.8,
			0.8,
			1.0],
			"metallicFactor":0.0,
			"roughnessFactor":0.5
		},
		"emissiveFactor":[0.0,
		0.0,
		0.0],
		"alphaMode":"OPAQUE",
		"doubleSided":false,
		"name":"M2"
	},
	{
		"pbrMetallicRoughness":{
			"baseColorTexture":{
				"index":2
			},
			"baseColorFactor":[0.8,
			0.8,
			0.8,
			1.0],
			"metallicFactor":0.0,
			"roughnessFactor":0.5
		},
		"emissiveFactor":[0.0,
		0.0,
		0.0],
		"alphaMode":"OPAQUE",
		"doubleSided":false,
		"name":"M1"
	}],
	"animations":[{
		"samplers":[{
			"input":6,
			"interpolation":"LINEAR",
			"output":7
		},
		{
			"input":8,
			"interpolation":"LINEAR",
			"output":9
		},
		{
			"input":10,
			"interpolation":"LINEAR",
			"output":11
		},
		{
			"input":15,
			"interpolation":"LINEAR",
			"output":16
		},
		{
			"input":17,
			"interpolation":"LINEAR",
			"output":18
		},
		{
			"input":19,
			"interpolation":"LINEAR",
			"output":20
		}],
		"channels":[{
			"sampler":0,
			"target":{
				"node":2,
				"path":"translation"
			}
		},
		{
			"sampler":1,
			"target":{
				"node":2,
				"path":"rotation"
			}
		},
		{
			"sampler":2,
			"target":{
				"node":2,
				"path":"scale"
			}
		},
		{
			"sampler":3,
			"target":{
				"node":3,
				"path":"translation"
			}
		},
		{
			"sampler":4,
			"target":{
				"node":3,
				"path":"rotation"
			}
		},
		{
			"sampler":5,
			"target":{
				"node":3,
				"path":"scale"
			}
		}]
	}]
}